<svg width="66" height="66" viewBox="0 0 66 66" fill="none" xmlns="http://www.w3.org/2000/svg">
<path d="M32.922 64.844C50.5521 64.844 64.844 50.552 64.844 32.922C64.844 15.292 50.5521 1 32.922 1C15.292 1 1 15.292 1 32.922C1 50.552 15.292 64.844 32.922 64.844Z" fill="white" stroke="#6DD1C6" stroke-width="0.982216"/>
<path d="M46.235 26.7998H43.686V21.7839C43.686 20.925 43.344 20.1244 42.785 19.5391L41.138 17.8158C39.741 16.3757 39.564 15.9688 38.732 15.5647C38.345 15.3717 37.835 15.2419 37.322 15.2419H25.292C23.499 15.2419 22.042 16.7 22.042 18.4914V36.0151H21.357C20.323 36.0151 19.482 36.8559 19.482 37.8897C19.482 38.4043 19.69 38.8701 20.026 39.209C19.69 39.5478 19.482 40.0137 19.482 40.5282C19.482 40.7212 19.509 40.8358 19.519 40.899C15.451 41.3128 13.83 46.3481 16.807 49.081C17.707 49.9066 18.9 50.3746 20.194 50.3218C20.622 50.3218 29.428 50.3184 29.439 50.3184C30.472 50.3184 31.313 49.4775 31.313 48.4437C31.313 47.9292 31.105 47.4633 30.769 47.1244C31.085 46.8057 31.288 46.3759 31.311 45.8982H32.014V46.2739C32.014 48.6603 33.955 50.6016 36.342 50.6016H46.235C48.621 50.6016 50.563 48.6603 50.563 46.2739V31.1276C50.563 28.7412 48.621 26.7998 46.235 26.7998ZM41.813 20.13C41.813 20.13 41.813 20.13 41.814 20.1314C41.814 20.1328 41.817 20.1342 41.817 20.1349L41.818 20.1355C41.82 20.1376 41.821 20.139 41.822 20.1397C41.823 20.1404 41.824 20.1411 41.824 20.1425C41.825 20.1431 41.826 20.1431 41.826 20.1438C41.826 20.1445 41.827 20.1445 41.828 20.1459C41.829 20.1466 41.83 20.148 41.831 20.1487H39.047V17.2061C41.229 19.5121 41.72 20.0321 41.813 20.13ZM21.357 37.126H29.439C29.86 37.126 30.203 37.469 30.203 37.8897C30.203 38.3112 29.86 38.6535 29.439 38.6535H21.357C20.936 38.6535 20.593 38.3112 20.593 37.8897C20.593 37.4689 20.936 37.126 21.357 37.126ZM21.357 39.7644H29.439C29.86 39.7644 30.203 40.1075 30.203 40.5282C30.203 40.9497 29.86 41.2919 29.439 41.2919H23.856C23.629 41.1878 23.394 41.1031 23.153 41.0378C22.793 40.9399 22.421 40.8843 22.042 40.8746C21.933 40.8718 21.824 40.8725 21.715 40.8774H20.678C20.624 40.7725 20.593 40.6538 20.593 40.5281C20.593 40.1075 20.936 39.7644 21.357 39.7644ZM30.203 43.1667C30.203 43.5882 29.86 43.9305 29.439 43.9305H26.33C26.119 43.3687 25.801 42.8514 25.387 42.4029H29.439C29.86 42.4029 30.203 42.7459 30.203 43.1667ZM18.654 42.1697C18.316 42.4904 18.016 42.8716 17.78 43.2917H17.132C17.555 42.7675 18.081 42.3946 18.654 42.1697ZM16.541 44.3332H17.35C17.332 44.4109 17.241 44.7102 17.199 45.1657H16.344C16.378 44.8796 16.444 44.6005 16.541 44.3332ZM16.631 47.0862C16.508 46.8071 16.42 46.5121 16.37 46.2072H17.219C17.371 47.0696 17.379 46.921 17.417 47.0862H16.631ZM17.324 48.1277C17.665 48.127 17.863 48.1291 17.909 48.1263C18.117 48.454 18.367 48.7575 18.656 49.0303C18.153 48.8325 17.705 48.5305 17.324 48.1277ZM22.064 49.281C20.031 49.3685 18.311 47.7945 18.225 45.7573C18.085 42.5141 21.959 40.6463 24.398 42.8855C26.802 45.0928 25.339 49.1463 22.064 49.281ZM29.439 49.2074H24.956C25.452 48.7873 25.86 48.2673 26.149 47.6799H29.439C29.86 47.6799 30.203 48.0229 30.203 48.4437C30.203 48.8651 29.86 49.2074 29.439 49.2074ZM30.196 45.8982C30.151 46.2759 29.828 46.569 29.439 46.569H26.532C26.633 46.0871 26.662 45.5677 26.6 45.0415H29.439C29.907 45.0414 30.256 45.4601 30.196 45.8982ZM32.014 44.7872H31.011C30.941 44.6783 30.86 44.5776 30.769 44.4859C31.495 43.7541 31.495 42.5793 30.769 41.8475C31.105 41.5087 31.313 41.0428 31.313 40.5283C31.313 40.0137 31.105 39.5479 30.769 39.209C31.937 38.0315 31.102 36.0151 29.439 36.0151H23.153V18.4914C23.153 17.3124 24.112 16.3528 25.292 16.3528H37.936V20.7042C37.936 21.0111 38.185 21.2597 38.492 21.2597H42.509C42.625 21.7096 42.553 21.561 42.575 26.7998H36.342C33.955 26.7998 32.014 28.7411 32.014 31.1275V44.7872ZM49.521 46.2739C49.521 48.0861 48.047 49.5602 46.235 49.5602H36.342C34.53 49.5602 33.056 48.0861 33.056 46.2739V31.1276C33.056 29.3154 34.53 27.8413 36.342 27.8413H46.235C48.047 27.8413 49.521 29.3153 49.521 31.1276V46.2739Z" fill="#6ED3C1"/>
<path d="M46.201 29.0227H36.382C35.416 29.0227 34.634 29.8055 34.634 30.771V32.677C34.634 33.6425 35.416 34.4253 36.382 34.4253H38.271C38.559 34.4253 38.792 34.1921 38.792 33.9046C38.792 33.617 38.559 33.3838 38.271 33.3838H36.382C35.993 33.3838 35.675 33.0657 35.675 32.677V30.771C35.675 30.3823 35.993 30.0642 36.382 30.0642H46.201C46.591 30.0642 46.908 30.3815 46.908 30.771V32.677C46.908 33.0665 46.591 33.3838 46.201 33.3838H40.517C40.229 33.3838 39.996 33.617 39.996 33.9046C39.996 34.1921 40.229 34.4253 40.517 34.4253H46.201C47.166 34.4253 47.95 33.6407 47.95 32.677V30.771C47.95 29.8073 47.166 29.0227 46.201 29.0227Z" fill="#6ED3C1"/>
<path d="M37.503 39.9959H35.724C35.123 39.9959 34.634 40.4847 34.634 41.086V42.8649C34.634 43.4662 35.123 43.955 35.724 43.955H37.503C38.105 43.955 38.593 43.4661 38.593 42.8649V41.086C38.593 40.4847 38.105 39.9959 37.503 39.9959ZM37.552 42.8649C37.552 42.892 37.53 42.9135 37.503 42.9135H35.724C35.697 42.9135 35.675 42.892 35.675 42.8649V41.086C35.675 41.0589 35.697 41.0374 35.724 41.0374H37.503C37.53 41.0374 37.552 41.0589 37.552 41.086V42.8649Z" fill="#6ED3C1"/>
<path d="M46.912 35.3442H45.133C44.532 35.3442 44.043 35.8331 44.043 36.4343V38.2132C44.043 38.8145 44.532 39.3033 45.133 39.3033H46.912C47.514 39.3033 48.002 38.8145 48.002 38.2132V36.4343C48.002 35.8331 47.514 35.3442 46.912 35.3442ZM46.961 38.2132C46.961 38.2403 46.939 38.2618 46.912 38.2618H45.133C45.107 38.2618 45.085 38.2403 45.085 38.2132C45.106 36.4531 45.04 36.3857 45.133 36.3857H46.912C46.939 36.3857 46.961 36.4072 46.961 36.4343V38.2132Z" fill="#6ED3C1"/>
<path d="M37.503 35.3442H35.724C35.123 35.3442 34.634 35.833 34.634 36.4342V38.2131C34.634 38.8145 35.123 39.3032 35.724 39.3032H37.503C38.105 39.3032 38.593 38.8144 38.593 38.2131V36.4342C38.593 35.833 38.105 35.3442 37.503 35.3442ZM37.552 38.2131C37.552 38.2402 37.53 38.2618 37.503 38.2618H35.724C35.697 38.2618 35.675 38.2402 35.675 38.2131V36.4342C35.675 36.4072 35.697 36.3856 35.724 36.3856H37.503C37.53 36.3856 37.552 36.4072 37.552 36.4342V38.2131Z" fill="#6ED3C1"/>
<path d="M38.316 44.7869C38.116 44.5619 37.824 44.4196 37.5 44.4196H35.72C35.396 44.4196 35.104 44.5619 34.905 44.7869C34.527 45.2111 34.655 45.6736 34.63 45.8978V47.2886C34.63 47.8899 35.12 48.3787 35.72 48.3787H37.5C38.101 48.3787 38.59 47.8898 38.59 47.2886V45.8978C38.565 45.6785 38.692 45.2111 38.316 44.7869ZM37.5 47.3372C35.742 47.3157 35.672 47.3824 35.672 47.2886C35.672 45.4049 35.651 45.4611 35.72 45.4611H37.5C37.585 45.4611 37.533 45.5798 37.548 45.8978C37.548 45.8978 37.594 47.3372 37.5 47.3372Z" fill="#6ED3C1"/>
<path d="M46.636 39.9957H45.41C44.656 39.9957 44.043 40.6089 44.043 41.3622V46.887C44.043 47.7098 44.713 48.3792 45.535 48.3792H46.511C47.334 48.3792 48.003 47.7098 48.003 46.887V41.3622C48.002 40.6089 47.39 39.9957 46.636 39.9957ZM46.511 47.3376H45.535C45.287 47.3376 45.085 47.1356 45.085 46.887V41.3622C45.085 41.183 45.231 41.0372 45.41 41.0372H46.636C46.815 41.0372 46.961 41.183 46.961 41.3622V46.887C46.961 47.1356 46.76 47.3376 46.511 47.3376Z" fill="#6ED3C1"/>
<path d="M28.684 30.369C28.049 30.1358 27.59 29.9672 27.59 29.379C27.59 28.8428 27.946 28.571 28.648 28.571C29.394 28.571 29.594 28.8991 29.857 28.8991C30.143 28.8991 30.301 28.5959 30.301 28.3861C30.301 27.9523 29.593 27.7372 28.961 27.6804V27.2892C28.961 27.0171 28.739 26.7958 28.467 26.7958C28.195 26.7958 27.974 27.0171 27.974 27.2892V27.7428C27.109 27.9481 26.633 28.5456 26.633 29.4308C26.633 30.6429 27.526 30.9782 28.243 31.2477C28.945 31.5115 29.5 31.72 29.5 32.5216C29.5 33.1837 29.132 33.5194 28.407 33.5194C27.345 33.5194 27.335 32.8028 26.931 32.8028C26.68 32.8028 26.478 33.0835 26.478 33.3158C26.478 33.7261 27.089 34.2655 27.974 34.4055V34.7835C27.974 35.0556 28.195 35.2769 28.467 35.2769C28.739 35.2769 28.961 35.0556 28.961 34.7835V34.3954C29.912 34.2163 30.456 33.5176 30.456 32.4697C30.456 31.0203 29.473 30.6592 28.684 30.369Z" fill="#6ED3C1"/>
<path d="M42.935 44.7251C42.74 44.5363 42.473 44.4196 42.18 44.4196H40.4C40.076 44.4196 39.784 44.5619 39.584 44.7869C39.207 45.2118 39.335 45.6736 39.31 45.8978V47.2886C39.31 47.8899 39.799 48.3787 40.4 48.3787H42.18C42.781 48.3787 43.269 47.8898 43.269 47.2886V45.509C43.269 45.2015 43.141 44.923 42.935 44.7251ZM42.18 47.3372C40.422 47.3157 40.352 47.3824 40.352 47.2886V45.509C40.352 45.4826 40.374 45.4611 40.4 45.4611H42.18C42.206 45.4611 42.228 45.4826 42.228 45.509C42.207 47.2713 42.272 47.3372 42.18 47.3372Z" fill="#6ED3C1"/>
<path d="M42.178 35.3442H40.399C39.797 35.3442 39.308 35.833 39.308 36.4342V38.2131C39.308 38.8145 39.797 39.3032 40.399 39.3032H42.178C42.318 39.3032 42.452 39.2768 42.575 39.2282C42.98 39.0692 43.268 38.6741 43.268 38.2131V36.4342C43.268 35.8309 42.776 35.3442 42.178 35.3442ZM42.178 38.2618H40.399C40.372 38.2618 40.35 38.2402 40.35 38.2131V36.4342C40.35 36.3405 40.415 36.4065 42.178 36.3856C42.205 36.3856 42.226 36.4072 42.226 36.4342V38.2131C42.226 38.2402 42.205 38.2618 42.178 38.2618Z" fill="#6ED3C1"/>
<path d="M42.575 40.0709C42.452 40.0223 42.318 39.9959 42.178 39.9959H40.399C39.797 39.9959 39.308 40.4847 39.308 41.086V42.8649C39.308 43.4662 39.797 43.955 40.399 43.955H42.178C42.779 43.955 43.268 43.4661 43.268 42.8649V41.086C43.268 40.625 42.98 40.2299 42.575 40.0709ZM42.226 42.8649C42.226 42.892 42.205 42.9135 42.178 42.9135H40.399C40.372 42.9135 40.35 42.892 40.35 42.8649V41.086C40.35 41.0589 40.372 41.0374 40.399 41.0374H42.178C42.205 41.0374 42.226 41.0589 42.226 41.086V42.8649Z" fill="#6ED3C1"/>
<path d="M39.17 22.3578H37.8619C37.5739 22.3578 37.3409 22.5911 37.3409 22.8785C37.3409 23.1666 37.5739 23.3992 37.8619 23.3992H39.17C39.457 23.3992 39.6909 23.1666 39.6909 22.8785C39.6909 22.5911 39.457 22.3578 39.17 22.3578Z" fill="#6ED3C1"/>
<path d="M35.78 22.3578H26.546C26.258 22.3578 26.025 22.5911 26.025 22.8785C26.025 23.1666 26.258 23.3992 26.546 23.3992H35.78C36.068 23.3992 36.301 23.1666 36.301 22.8785C36.301 22.5911 36.068 22.3578 35.78 22.3578Z" fill="#6ED3C1"/>
<path d="M28.201 24.9432H26.546C26.258 24.9432 26.025 25.1765 26.025 25.4639C26.025 25.7513 26.258 25.9846 26.546 25.9846H28.201C28.488 25.9846 28.722 25.7513 28.722 25.4639C28.722 25.1765 28.488 24.9432 28.201 24.9432Z" fill="#6ED3C1"/>
<path d="M39.172 24.9432H30.285C29.997 24.9432 29.764 25.1765 29.764 25.4639C29.764 25.7513 29.997 25.9846 30.285 25.9846H39.172C39.46 25.9846 39.693 25.7513 39.693 25.4639C39.693 25.1765 39.46 24.9432 39.172 24.9432Z" fill="#6ED3C1"/>
<path d="M21.6119 44.6041C21.6119 44.4732 21.66 44.4357 21.705 44.4107C21.845 44.3332 22.166 44.3104 22.46 44.4617C22.538 44.5018 22.6259 44.5473 22.7419 44.5473C23.2549 44.5473 23.662 43.593 22.435 43.382V43.3492C22.435 43.0582 22.198 42.8215 21.907 42.8215C21.616 42.8215 21.379 43.0582 21.379 43.3492V43.4493C20.865 43.6358 20.5739 44.0598 20.5739 44.6352C20.5739 45.5234 21.2199 45.7659 21.6909 45.9429C22.1399 46.1117 22.296 46.1856 22.296 46.4913C22.296 46.6824 22.2439 46.8593 21.8709 46.8593C21.3259 46.8593 21.3909 46.429 20.9839 46.429C20.6959 46.429 20.481 46.7137 20.481 46.9684C20.481 47.3291 20.856 47.6716 21.379 47.8104V47.8499C21.379 48.1408 21.616 48.3776 21.907 48.3776C22.198 48.3776 22.435 48.1409 22.435 47.8499V47.7966C23.001 47.6146 23.3329 47.1271 23.3329 46.4602C23.3329 44.8778 21.6119 45.1154 21.6119 44.6041Z" fill="#6ED3C1"/>
</svg>
