<svg width="66" height="66" viewBox="0 0 66 66" fill="none" xmlns="http://www.w3.org/2000/svg">
<path d="M32.922 64.844C50.552 64.844 64.844 50.552 64.844 32.922C64.844 15.292 50.552 1 32.922 1C15.292 1 1 15.292 1 32.922C1 50.552 15.292 64.844 32.922 64.844Z" fill="white" stroke="#6DD1C6" stroke-width="0.982216"/>
<path d="M46.7359 19.6624H43.9729V18.5574C43.9729 17.9713 43.7399 17.4092 43.3259 16.9947C42.9109 16.5802 42.3489 16.3474 41.7629 16.3474C41.1769 16.3474 40.6149 16.5802 40.2009 16.9947C39.7859 17.4092 39.5529 17.9713 39.5529 18.5574V19.6624H35.1329V18.5574C35.1329 17.9713 34.8999 17.4092 34.4859 16.9947C34.0719 16.5802 33.5089 16.3474 32.9229 16.3474C32.3369 16.3474 31.7749 16.5802 31.3609 16.9947C30.9459 17.4092 30.713 17.9713 30.713 18.5574V19.6624H26.2929V18.5574C26.2929 17.9713 26.0599 17.4092 25.6459 16.9947C25.2319 16.5802 24.6689 16.3474 24.0829 16.3474C23.4969 16.3474 22.9349 16.5802 22.5209 16.9947C22.1059 17.4092 21.8729 17.9713 21.8729 18.5574V19.6624H19.1109C18.3779 19.6624 17.6759 19.9534 17.1579 20.4715C16.6389 20.9896 16.3479 21.6922 16.3479 22.4249V44.5247C16.3479 45.2574 16.6389 45.96 17.1579 46.4781C17.6759 46.9962 18.3779 47.2872 19.1109 47.2872H34.5809C34.7269 47.2872 34.8679 47.229 34.9709 47.1254C35.0749 47.0218 35.1329 46.8812 35.1329 46.7347C35.1329 46.5882 35.0749 46.4476 34.9709 46.344C34.8679 46.2404 34.7269 46.1822 34.5809 46.1822H19.1109C18.6719 46.1809 18.2509 46.0059 17.9399 45.6953C17.6299 45.3847 17.4549 44.9639 17.4529 44.5247V27.3973H48.3929V36.7898C48.3929 36.9363 48.4509 37.0768 48.5549 37.1804C48.6589 37.2841 48.7989 37.3423 48.9459 37.3423C49.0919 37.3423 49.2329 37.2841 49.3359 37.1804C49.4399 37.0768 49.4979 36.9363 49.4979 36.7898V22.4249C49.4979 21.6922 49.2069 20.9896 48.6889 20.4715C48.1709 19.9534 47.4679 19.6624 46.7359 19.6624ZM40.6579 18.5574C40.6579 18.2643 40.7749 17.9833 40.9819 17.776C41.1889 17.5688 41.4699 17.4524 41.7629 17.4524C42.0559 17.4524 42.3369 17.5688 42.5449 17.776C42.7519 17.9833 42.8679 18.2643 42.8679 18.5574V21.8724C42.8679 22.1654 42.7519 22.4465 42.5449 22.6537C42.3369 22.8609 42.0559 22.9774 41.7629 22.9774C41.4699 22.9774 41.1889 22.8609 40.9819 22.6537C40.7749 22.4465 40.6579 22.1654 40.6579 21.8724V18.5574ZM31.8179 18.5574C31.8179 18.2643 31.9349 17.9833 32.1419 17.776C32.3489 17.5688 32.6299 17.4524 32.9229 17.4524C33.2159 17.4524 33.4969 17.5688 33.7049 17.776C33.9119 17.9833 34.028 18.2643 34.028 18.5574V21.8724C34.028 22.1654 33.9119 22.4465 33.7049 22.6537C33.4969 22.8609 33.2159 22.9774 32.9229 22.9774C32.6299 22.9774 32.3489 22.8609 32.1419 22.6537C31.9349 22.4465 31.8179 22.1654 31.8179 21.8724V18.5574ZM22.9779 18.5574C22.9779 18.2643 23.0949 17.9833 23.3019 17.776C23.5089 17.5688 23.7899 17.4524 24.0829 17.4524C24.3759 17.4524 24.6569 17.5688 24.8649 17.776C25.0719 17.9833 25.1879 18.2643 25.1879 18.5574V21.8724C25.1879 22.1654 25.0719 22.4465 24.8649 22.6537C24.6569 22.8609 24.3759 22.9774 24.0829 22.9774C23.7899 22.9774 23.5089 22.8609 23.3019 22.6537C23.0949 22.4465 22.9779 22.1654 22.9779 21.8724V18.5574ZM48.3929 26.2923H17.4529V22.4249C17.4549 21.9857 17.6299 21.5649 17.9399 21.2543C18.2509 20.9437 18.6719 20.7687 19.1109 20.7674H21.8729V21.8724C21.8729 22.4585 22.1059 23.0206 22.5209 23.4351C22.9349 23.8495 23.4969 24.0824 24.0829 24.0824C24.6689 24.0824 25.2319 23.8495 25.6459 23.4351C26.0599 23.0206 26.2929 22.4585 26.2929 21.8724V20.7674H30.713V21.8724C30.713 22.4585 30.9459 23.0206 31.3609 23.4351C31.7749 23.8495 32.3369 24.0824 32.9229 24.0824C33.5089 24.0824 34.0719 23.8495 34.4859 23.4351C34.8999 23.0206 35.1329 22.4585 35.1329 21.8724V20.7674H39.5529V21.8724C39.5529 22.4585 39.7859 23.0206 40.2009 23.4351C40.6149 23.8495 41.1769 24.0824 41.7629 24.0824C42.3489 24.0824 42.9109 23.8495 43.3259 23.4351C43.7399 23.0206 43.9729 22.4585 43.9729 21.8724V20.7674H46.7359C47.1749 20.7687 47.5959 20.9437 47.9059 21.2543C48.2169 21.5649 48.3919 21.9857 48.3929 22.4249V26.2923Z" fill="#6ED3C1"/>
<path d="M31.8189 31.2648C31.8189 30.9717 31.7019 30.6907 31.4949 30.4834C31.2879 30.2762 31.0069 30.1598 30.7139 30.1598H28.5039C28.2109 30.1598 27.9299 30.2762 27.7219 30.4834C27.5149 30.6907 27.3989 30.9717 27.3989 31.2648V32.9223C27.3989 33.2153 27.5149 33.4964 27.7219 33.7036C27.9299 33.9108 28.2109 34.0273 28.5039 34.0273H30.7139C31.0069 34.0273 31.2879 33.9108 31.4949 33.7036C31.7019 33.4964 31.8189 33.2153 31.8189 32.9223V31.2648ZM28.5039 32.9223V31.2648H30.7139V32.9223H28.5039Z" fill="#6ED3C1"/>
<path d="M25.188 31.2648C25.188 30.9717 25.0711 30.6907 24.8641 30.4834C24.6571 30.2762 24.3761 30.1598 24.0831 30.1598H21.873C21.58 30.1598 21.2991 30.2762 21.0911 30.4834C20.8841 30.6907 20.7681 30.9717 20.7681 31.2648V32.9223C20.7681 33.2153 20.8841 33.4964 21.0911 33.7036C21.2991 33.9108 21.58 34.0273 21.873 34.0273H24.0831C24.3761 34.0273 24.6571 33.9108 24.8641 33.7036C25.0711 33.4964 25.188 33.2153 25.188 32.9223V31.2648ZM21.873 32.9223V31.2648H24.0831V32.9223H21.873Z" fill="#6ED3C1"/>
<path d="M43.971 34.0273C44.265 34.0273 44.546 33.9108 44.753 33.7036C44.96 33.4964 45.076 33.2153 45.076 32.9223V31.2648C45.076 30.9717 44.96 30.6907 44.753 30.4834C44.546 30.2762 44.265 30.1598 43.971 30.1598H41.762C41.468 30.1598 41.187 30.2762 40.98 30.4834C40.773 30.6907 40.657 30.9717 40.657 31.2648V32.9223C40.657 33.2153 40.773 33.4964 40.98 33.7036C41.187 33.9108 41.468 34.0273 41.762 34.0273H43.971ZM41.762 31.2648H43.971V32.9223H41.762V31.2648Z" fill="#6ED3C1"/>
<path d="M31.8189 36.237C31.8189 35.9439 31.7019 35.6629 31.4949 35.4557C31.2879 35.2484 31.0069 35.132 30.7139 35.132H28.5039C28.2109 35.132 27.9299 35.2484 27.7219 35.4557C27.5149 35.6629 27.3989 35.9439 27.3989 36.237V37.8945C27.3989 38.1876 27.5149 38.4686 27.7219 38.6758C27.9299 38.8831 28.2109 38.9995 28.5039 38.9995H30.7139C31.0069 38.9995 31.2879 38.8831 31.4949 38.6758C31.7019 38.4686 31.8189 38.1876 31.8189 37.8945V36.237ZM28.5039 37.8945V36.237H30.7139V37.8945H28.5039Z" fill="#6ED3C1"/>
<path d="M25.188 36.237C25.188 35.9439 25.0711 35.6629 24.8641 35.4557C24.6571 35.2484 24.3761 35.132 24.0831 35.132H21.873C21.58 35.132 21.2991 35.2484 21.0911 35.4557C20.8841 35.6629 20.7681 35.9439 20.7681 36.237V37.8945C20.7681 38.1876 20.8841 38.4686 21.0911 38.6758C21.2991 38.8831 21.58 38.9995 21.873 38.9995H24.0831C24.3761 38.9995 24.6571 38.8831 24.8641 38.6758C25.0711 38.4686 25.188 38.1876 25.188 37.8945V36.237ZM21.873 37.8945V36.237H24.0831V37.8945H21.873Z" fill="#6ED3C1"/>
<path d="M30.7139 40.1048H28.5039C28.2109 40.1048 27.9299 40.2212 27.7219 40.4284C27.5149 40.6357 27.3989 40.9167 27.3989 41.2098V42.8673C27.3989 43.1603 27.5149 43.4414 27.7219 43.6486C27.9299 43.8559 28.2109 43.9723 28.5039 43.9723H30.7139C31.0069 43.9723 31.2879 43.8559 31.4949 43.6486C31.7019 43.4414 31.8189 43.1603 31.8189 42.8673V41.2098C31.8189 40.9167 31.7019 40.6357 31.4949 40.4284C31.2879 40.2212 31.0069 40.1048 30.7139 40.1048ZM28.5039 42.8673V41.2098H30.7139V42.8673H28.5039Z" fill="#6ED3C1"/>
<path d="M35.134 34.0273H37.3441C37.6371 34.0273 37.9181 33.9108 38.1251 33.7036C38.3331 33.4964 38.449 33.2153 38.449 32.9223V31.2648C38.449 30.9717 38.3331 30.6907 38.1251 30.4834C37.9181 30.2762 37.6371 30.1598 37.3441 30.1598H35.134C34.841 30.1598 34.56 30.2762 34.353 30.4834C34.145 30.6907 34.0291 30.9717 34.0291 31.2648V32.9223C34.0291 33.2153 34.145 33.4964 34.353 33.7036C34.56 33.9108 34.841 34.0273 35.134 34.0273ZM35.134 31.2648H37.3441V32.9223H35.134V31.2648Z" fill="#6ED3C1"/>
<path d="M34.0291 37.8945C34.0291 38.1876 34.145 38.4686 34.353 38.6758C34.56 38.8831 34.841 38.9995 35.134 38.9995C35.281 38.9995 35.421 38.9413 35.525 38.8377C35.628 38.7341 35.6871 38.5935 35.6871 38.447C35.6871 38.3005 35.628 38.1599 35.525 38.0563C35.421 37.9527 35.281 37.8945 35.134 37.8945V36.237H37.3441C37.4911 36.237 37.631 36.1788 37.735 36.0752C37.838 35.9716 37.897 35.831 37.897 35.6845C37.897 35.538 37.838 35.3975 37.735 35.2938C37.631 35.1902 37.4911 35.132 37.3441 35.132H35.134C34.841 35.132 34.56 35.2484 34.353 35.4557C34.145 35.6629 34.0291 35.9439 34.0291 36.237V37.8945Z" fill="#6ED3C1"/>
<path d="M24.0831 40.1049H21.873C21.58 40.1049 21.2991 40.2213 21.0911 40.4285C20.8841 40.6357 20.7681 40.9168 20.7681 41.2098V42.8673C20.7681 43.1604 20.8841 43.4415 21.0911 43.6487C21.2991 43.8559 21.58 43.9723 21.873 43.9723H24.0831C24.3761 43.9723 24.6571 43.8559 24.8641 43.6487C25.0711 43.4415 25.188 43.1604 25.188 42.8673V41.2098C25.188 40.9168 25.0711 40.6357 24.8641 40.4285C24.6571 40.2213 24.3761 40.1049 24.0831 40.1049ZM21.873 42.8673V41.2098H24.0831V42.8673H21.873Z" fill="#6ED3C1"/>
<path d="M42.316 35.132C40.895 35.132 39.506 35.5533 38.325 36.3425C37.144 37.1317 36.223 38.2534 35.68 39.5659C35.136 40.8783 34.994 42.3224 35.271 43.7157C35.548 45.109 36.232 46.3887 37.237 47.3932C38.241 48.3977 39.521 49.0818 40.914 49.3589C42.308 49.636 43.752 49.4938 45.064 48.9502C46.377 48.4066 47.498 47.486 48.288 46.3048C49.077 45.1237 49.498 43.735 49.498 42.3145C49.496 40.4102 48.738 38.5846 47.392 37.2381C46.045 35.8916 44.22 35.1342 42.316 35.132ZM42.316 48.3919C41.114 48.3919 39.939 48.0355 38.939 47.3677C37.94 46.6999 37.161 45.7507 36.701 44.6402C36.241 43.5297 36.12 42.3077 36.355 41.1288C36.589 39.9499 37.168 38.867 38.018 38.0171C38.868 37.1671 39.951 36.5883 41.13 36.3538C42.309 36.1193 43.531 36.2396 44.641 36.6996C45.752 37.1596 46.701 37.9386 47.369 38.938C48.037 39.9374 48.393 41.1125 48.393 42.3145C48.391 43.9257 47.75 45.4704 46.611 46.6098C45.472 47.7491 43.927 48.39 42.316 48.3919Z" fill="#6ED3C1"/>
<path d="M45.509 39.999L41.2111 44.2963L39.2581 42.3427C39.1541 42.242 39.0151 42.1863 38.8701 42.1876C38.7251 42.1888 38.5861 42.2469 38.4841 42.3494C38.3811 42.4518 38.323 42.5904 38.322 42.7353C38.321 42.8801 38.3761 43.0197 38.4771 43.1239L40.8211 45.4681C40.9241 45.5717 41.0651 45.6299 41.2111 45.6299C41.3581 45.6299 41.4981 45.5717 41.6021 45.4681L46.2901 40.7802C46.3911 40.676 46.4461 40.5364 46.4451 40.3916C46.4441 40.2467 46.386 40.1081 46.283 40.0057C46.181 39.9033 46.042 39.8451 45.897 39.8439C45.753 39.8426 45.613 39.8983 45.509 39.999Z" fill="#6ED3C1"/>
</svg>
