<svg width="66" height="66" viewBox="0 0 66 66" fill="none" xmlns="http://www.w3.org/2000/svg">
<path d="M32.922 64.844C50.552 64.844 64.844 50.552 64.844 32.922C64.844 15.292 50.552 1 32.922 1C15.292 1 1 15.292 1 32.922C1 50.552 15.292 64.844 32.922 64.844Z" fill="white" stroke="#6DD1C6" stroke-width="0.982216"/>
<path d="M48.9691 49.221H47.4551V27.228C47.4551 26.204 46.6221 25.371 45.5981 25.371H42.212C41.189 25.371 40.3561 26.204 40.3561 27.228V49.221H36.5101V37.192C36.5101 36.169 35.6771 35.336 34.6531 35.336H31.2681C30.2441 35.336 29.4111 36.169 29.4111 37.192V49.221H25.5651V42.992C25.5651 41.968 24.7321 41.135 23.7081 41.135H20.3221C19.2991 41.135 18.4661 41.968 18.4661 42.992V49.221H16.8701C16.4881 49.221 16.1791 49.53 16.1791 49.912C16.1791 50.293 16.4881 50.603 16.8701 50.603H48.9691C49.3511 50.603 49.66 50.293 49.66 49.912C49.66 49.53 49.3511 49.221 48.9691 49.221ZM24.183 49.221H19.847V42.992C19.847 42.73 20.0601 42.516 20.3221 42.516H23.7081C23.9701 42.516 24.183 42.73 24.183 42.992V49.221ZM35.1281 49.221H30.7921V37.192C30.7921 36.93 31.005 36.717 31.267 36.717H34.6531C34.9151 36.717 35.1281 36.93 35.1281 37.192V49.221ZM46.0731 49.221H41.7371V27.228C41.7371 26.965 41.95 26.752 42.212 26.752H45.5981C45.8601 26.752 46.0731 26.965 46.0731 27.228V49.221Z" fill="#6ED3C1"/>
<path d="M47.4511 15.9691C47.4601 15.7801 47.3941 15.5891 47.2501 15.4451C47.1061 15.3011 46.9151 15.2341 46.7261 15.2441C46.7151 15.2441 46.7041 15.2421 46.6931 15.2421H42.5141C42.1331 15.2421 41.8241 15.5521 41.8241 15.9331C41.8241 16.3141 42.1331 16.6241 42.5141 16.6241H45.0941L38.2671 23.4511L35.6921 20.8761C35.5631 20.7471 35.3871 20.6741 35.2041 20.6741C35.0211 20.6741 34.8451 20.7471 34.7161 20.8761L22.3011 33.2921C22.0311 33.5611 22.0311 33.9991 22.3011 34.2681C22.4351 34.4031 22.6121 34.4711 22.7891 34.4711C22.9661 34.4711 23.1421 34.4031 23.2771 34.2681L35.2041 22.3411L37.7791 24.9161C38.0481 25.1861 38.4861 25.1861 38.7561 24.9161L46.0711 17.6001V19.9351C46.0711 20.3171 46.3801 20.6261 46.7621 20.6261C47.1431 20.6261 47.4521 20.3171 47.4521 19.9351V16.0021C47.4521 15.9911 47.4511 15.9801 47.4511 15.9691Z" fill="#6ED3C1"/>
<path d="M20.46 36.88C20.842 36.88 21.151 36.571 21.151 36.189C21.151 35.808 20.842 35.499 20.46 35.499C20.079 35.499 19.77 35.808 19.77 36.189C19.77 36.571 20.079 36.88 20.46 36.88Z" fill="#6ED3C1"/>
</svg>
