<svg width="66" height="66" viewBox="0 0 66 66" fill="none" xmlns="http://www.w3.org/2000/svg">
<path d="M32.922 64.844C50.552 64.844 64.844 50.552 64.844 32.922C64.844 15.292 50.552 1 32.922 1C15.292 1 1 15.292 1 32.922C1 50.552 15.292 64.844 32.922 64.844Z" fill="white" stroke="#6ED3C1" stroke-width="0.982216"/>
<path d="M40.853 39.9119C40.4688 39.9119 40.1572 40.2254 40.1572 40.6097C40.1572 40.9939 40.4688 41.3054 40.853 41.3054C41.2372 41.3054 41.5487 40.9938 41.5487 40.6097V40.6057C41.5487 40.2215 41.2372 39.9119 40.853 39.9119Z" fill="#6ED3C1"/>
<path d="M43.959 39.9119C43.5748 39.9119 43.2633 40.2254 43.2633 40.6097C43.2633 40.9939 43.5748 41.3054 43.959 41.3054C44.3432 41.3054 44.6548 40.9938 44.6548 40.6097V40.6057C44.6548 40.2215 44.3432 39.9119 43.959 39.9119Z" fill="#6ED3C1"/>
<path d="M47.0679 39.9119C46.6837 39.9119 46.3722 40.2254 46.3722 40.6097C46.3722 40.9939 46.6837 41.3054 47.0679 41.3054C47.4521 41.3054 47.7636 40.9938 47.7636 40.6097V40.6057C47.7636 40.2215 47.4522 39.9119 47.0679 39.9119Z" fill="#6ED3C1"/>
<path d="M32.5317 28.6968C32.5317 29.3939 33.0989 29.9611 33.7959 29.9611H35.7301C36.1532 29.9611 36.5274 29.7514 36.757 29.4314C37.3171 29.6571 37.9714 29.7731 38.5217 29.7731H40.955C42.7293 29.7731 44.1728 28.3304 44.1728 26.5571V24.7894C44.1728 23.5137 43.1342 22.4759 41.8574 22.4759H41.2129V20.9915C41.2129 20.0342 40.4342 19.2554 39.477 19.2554C38.3553 19.2554 37.9408 20.3371 37.7843 20.7454L37.1831 22.3221C37.0952 22.5533 37.0136 22.6857 36.9142 22.7623C36.7353 22.2804 36.2728 21.9355 35.7301 21.9355H33.7959C33.0989 21.9355 32.5317 22.5035 32.5317 23.2017V28.6968ZM36.9943 24.2018C37.5105 24.102 38.1029 23.7898 38.4739 22.8135L39.0745 21.2387C39.3051 20.6367 39.4255 20.6367 39.4769 20.6367C39.6725 20.6367 39.8317 20.7959 39.8317 20.9916V23.1665C39.8317 23.5479 40.1409 23.8572 40.5223 23.8572H41.8574C42.3725 23.8572 42.7916 24.2754 42.7916 24.7894V26.5572C42.7916 27.5688 41.9676 28.3919 40.9549 28.3919H38.5216C37.9048 28.3919 37.3009 28.1991 36.9943 28.0164V24.2018ZM33.913 23.3168H35.613V28.5799H33.913V23.3168Z" fill="#6ED3C1"/>
<path d="M49.0119 36.6497H40.1662C40.1224 36.0863 40.0414 35.5264 39.922 34.9747C40.026 34.9589 40.1298 34.9413 40.2335 34.9221C45.4768 33.9433 48.9484 28.8811 47.9721 23.6375C47.499 21.0965 46.065 18.8922 43.934 17.4304C41.803 15.9684 39.2302 15.4243 36.6896 15.8985C35.9083 16.0439 35.1516 16.2822 34.4405 16.607C34.0935 16.7653 33.9406 17.175 34.0991 17.522C34.2574 17.869 34.6673 18.0218 35.0141 17.8634C35.623 17.5855 36.2718 17.3813 36.9428 17.2563C39.1208 16.8501 41.3259 17.3162 43.1527 18.5694C44.9794 19.8225 46.2087 21.7122 46.6143 23.8904C47.4512 28.3856 44.4752 32.7254 39.9808 33.5643C38.4781 33.8434 36.9322 33.704 35.5098 33.1615C35.328 33.0922 35.1254 33.1026 34.9518 33.1906C33.7166 33.816 32.3691 34.0238 30.9359 33.8122C31.5177 32.605 31.6873 31.5709 31.5728 30.185C31.5635 30.073 31.527 29.9649 31.4665 29.87C30.8929 28.9724 30.5027 27.9827 30.3067 26.9282C29.9792 25.1718 30.2178 23.3961 30.9967 21.793C31.1634 21.4499 31.0204 21.0367 30.6773 20.87C30.3344 20.7032 29.921 20.8463 29.7544 21.1894C29.1395 22.4548 28.8142 23.8123 28.7855 25.1923C28.432 25.1623 28.0768 25.1467 27.7232 25.1467C24.3894 25.1467 21.2549 26.4449 18.897 28.802C16.5396 31.1592 15.2413 34.2937 15.2413 37.6281C15.2413 40.9624 16.5396 44.0969 18.8967 46.4541C21.2539 48.8127 24.3884 50.1117 27.723 50.1117C31.0592 50.1117 34.1943 48.8127 36.5506 46.4541C37.1736 45.8311 37.7268 45.1478 38.2024 44.4153C38.4069 44.5116 38.6349 44.5656 38.8754 44.5656H49.0119C49.8882 44.5656 50.6011 43.8528 50.6011 42.9764V38.2389C50.6011 37.3626 49.8882 36.6497 49.0119 36.6497ZM31.3374 35.2472C31.5723 35.7625 31.6954 36.3265 31.6954 36.8981C31.6954 39.0885 29.9134 40.8705 27.723 40.8705C25.5326 40.8705 23.7506 39.0885 23.7506 36.8981C23.7506 34.7076 25.5327 32.9256 27.723 32.9256C28.3867 32.9256 29.0259 33.0874 29.5996 33.3962C29.5083 33.5739 29.4072 33.7574 29.2929 33.9515C29.1829 34.1382 29.1669 34.3658 29.2498 34.566C29.3326 34.7663 29.5046 34.9161 29.7145 34.9705C30.2645 35.1132 30.8056 35.2046 31.3374 35.2472ZM19.8736 45.4775C15.5453 41.1493 15.5453 34.1068 19.8735 29.7787C21.9704 27.6823 24.7581 26.5278 27.7231 26.5278C28.1012 26.5278 28.4812 26.5477 28.8583 26.5861C28.8829 26.7845 28.9117 26.9828 28.9487 27.181C29.1664 28.3522 29.5899 29.4555 30.2084 30.4634C30.2483 31.0752 30.218 31.5907 30.0977 32.0988C29.3646 31.7347 28.5582 31.5444 27.723 31.5444C24.771 31.5444 22.3694 33.946 22.3694 36.8981C22.3694 38.2188 22.8511 39.4286 23.6469 40.3632C21.7451 41.5324 20.4305 43.458 20.0329 45.6331C19.9795 45.5817 19.9261 45.5301 19.8736 45.4775ZM27.723 48.7304C25.3873 48.7304 23.1621 48.0133 21.2979 46.6838C21.4187 44.4327 22.7272 42.3949 24.7292 41.3343C25.5843 41.9132 26.6149 42.2517 27.723 42.2517C28.8315 42.2517 29.8622 41.913 30.7175 41.3338C32.7201 42.3944 34.0289 44.4325 34.1497 46.684C32.2857 48.0133 30.06 48.7304 27.723 48.7304ZM35.5737 45.4778C35.5212 45.5303 35.468 45.5818 35.4147 45.6331C35.0171 43.4575 33.7021 41.5317 31.7998 40.3626C32.5952 39.428 33.0767 38.2185 33.0767 36.8982C33.0767 36.3312 32.9862 35.7696 32.8122 35.2353C33.673 35.149 34.5045 34.9226 35.3015 34.5553C36.3418 34.9151 37.4334 35.0919 38.5296 35.084C38.6505 35.6001 38.7357 36.1243 38.7817 36.6527C37.95 36.7014 37.2881 37.3942 37.2881 38.2389V38.7255L35.3166 40.032C35.1236 40.16 35.0075 40.376 35.0075 40.6077C35.0075 40.8393 35.1236 41.0554 35.3166 41.1834L37.2881 42.4898V42.9765C37.2881 43.0633 37.2954 43.1483 37.3088 43.2313C36.8309 44.0472 36.2491 44.8024 35.5737 45.4778ZM49.2198 42.9764C49.2198 43.0892 49.1246 43.1844 49.0119 43.1844H38.8754C38.7638 43.1844 38.6694 43.0892 38.6694 42.9764V42.119C38.6694 41.8873 38.5533 41.6712 38.3603 41.5433L36.9484 40.6076L38.3603 39.672C38.5533 39.544 38.6694 39.3279 38.6694 39.0963V38.2389C38.6694 38.1261 38.7638 38.0308 38.8754 38.0308H49.0119C49.1246 38.0308 49.2198 38.1261 49.2198 38.2389V42.9764Z" fill="#6ED3C1"/>
<path d="M32.1867 19.6649C32.364 19.6649 32.5415 19.5973 32.6766 19.4621C32.9463 19.1925 32.9463 18.7552 32.6766 18.4855C32.4068 18.2159 31.9697 18.2159 31.6999 18.4855L31.698 18.4874C31.4283 18.7571 31.4293 19.1934 31.699 19.4631C31.8335 19.5978 32.0101 19.6649 32.1867 19.6649Z" fill="#6ED3C1"/>
</svg>
